<mxfile host="app.diagrams.net" modified="2023-10-09T13:58:13.676Z" agent="Mozilla/5.0 (Windows NT 10.0; Win64; x64) AppleWebKit/537.36 (KHTML, like Gecko) Chrome/117.0.0.0 Safari/537.36" etag="c7ezYPpd1U3QUFX4acwQ" version="22.0.4" type="github">
  <diagram name="PÃ¡gina-1" id="e4uMJLlvltjFi55yqN0S">
    <mxGraphModel dx="1877" dy="542" grid="1" gridSize="10" guides="1" tooltips="1" connect="1" arrows="1" fold="1" page="1" pageScale="1" pageWidth="827" pageHeight="1169" math="0" shadow="0">
      <root>
        <mxCell id="0" />
        <mxCell id="1" parent="0" />
        <mxCell id="XDD5NqhHqpp_Tf_U7cEY-1" value="Proyecto-Angular" style="rounded=0;whiteSpace=wrap;html=1;" vertex="1" parent="1">
          <mxGeometry x="414" y="240" width="120" height="60" as="geometry" />
        </mxCell>
        <mxCell id="XDD5NqhHqpp_Tf_U7cEY-3" value="Source Code Files" style="swimlane;whiteSpace=wrap;html=1;" vertex="1" parent="1">
          <mxGeometry x="-70" y="40" width="380" height="360" as="geometry" />
        </mxCell>
        <mxCell id="XDD5NqhHqpp_Tf_U7cEY-4" value="&lt;b&gt;Components:&lt;br&gt;&lt;/b&gt;-About.component.ts&lt;br&gt;-CalltoAction.component.ts&lt;br&gt;-Contact.component.ts&lt;br&gt;-Footer.component.ts&lt;br&gt;-Masthead.component.ts&lt;br&gt;-Navigation.component.ts&lt;br&gt;-Portfolio.component.ts&lt;br&gt;-Services.component.ts" style="rounded=0;whiteSpace=wrap;html=1;" vertex="1" parent="XDD5NqhHqpp_Tf_U7cEY-3">
          <mxGeometry x="20" y="40" width="160" height="140" as="geometry" />
        </mxCell>
        <mxCell id="XDD5NqhHqpp_Tf_U7cEY-7" value="&lt;b&gt;HTML Template:&lt;br&gt;&lt;/b&gt;-About.component.html&lt;br&gt;-CalltoAction.component.html&lt;br&gt;-Contact.component.html&lt;br&gt;-Footer.component.html&lt;br&gt;-Masthead.component.html&lt;br&gt;-Navigation.component.html&lt;br&gt;-Portfolio.component.html&lt;br&gt;-Services.component.html" style="rounded=0;whiteSpace=wrap;html=1;" vertex="1" parent="XDD5NqhHqpp_Tf_U7cEY-3">
          <mxGeometry x="200" y="40" width="160" height="140" as="geometry" />
        </mxCell>
        <mxCell id="XDD5NqhHqpp_Tf_U7cEY-8" value="&lt;b&gt;CSS Styles:&lt;br&gt;&lt;/b&gt;-About.component.css&lt;br&gt;-CalltoAction.component.css&lt;br&gt;-Contact.component.css&lt;br&gt;-Footer.component.css&lt;br&gt;-Masthead.component.css&lt;br&gt;-Navigation.component.css&lt;br&gt;-Portfolio.component.css&lt;br&gt;-Services.component.css" style="rounded=0;whiteSpace=wrap;html=1;" vertex="1" parent="XDD5NqhHqpp_Tf_U7cEY-3">
          <mxGeometry x="20" y="200" width="160" height="140" as="geometry" />
        </mxCell>
        <mxCell id="XDD5NqhHqpp_Tf_U7cEY-9" value="&lt;b&gt;Services:&lt;br&gt;&lt;/b&gt;Servicio.service.ts" style="rounded=0;whiteSpace=wrap;html=1;" vertex="1" parent="XDD5NqhHqpp_Tf_U7cEY-3">
          <mxGeometry x="200" y="200" width="160" height="140" as="geometry" />
        </mxCell>
        <mxCell id="XDD5NqhHqpp_Tf_U7cEY-10" value="&lt;blockquote style=&quot;margin: 0 0 0 40px; border: none; padding: 0px;&quot;&gt;Configuration Files&lt;/blockquote&gt;" style="swimlane;whiteSpace=wrap;html=1;" vertex="1" parent="1">
          <mxGeometry x="374" y="20" width="200" height="140" as="geometry" />
        </mxCell>
        <mxCell id="XDD5NqhHqpp_Tf_U7cEY-11" value="&lt;b&gt;File&lt;/b&gt;&lt;br&gt;angular.json" style="rounded=0;whiteSpace=wrap;html=1;" vertex="1" parent="XDD5NqhHqpp_Tf_U7cEY-10">
          <mxGeometry x="40" y="50" width="120" height="60" as="geometry" />
        </mxCell>
        <mxCell id="XDD5NqhHqpp_Tf_U7cEY-12" value="&lt;blockquote style=&quot;margin: 0 0 0 40px; border: none; padding: 0px;&quot;&gt;Libraries&lt;/blockquote&gt;" style="swimlane;whiteSpace=wrap;html=1;" vertex="1" parent="1">
          <mxGeometry x="650" y="140" width="200" height="260" as="geometry" />
        </mxCell>
        <mxCell id="XDD5NqhHqpp_Tf_U7cEY-13" value="&lt;b&gt;Project dependencies&lt;/b&gt;&lt;br&gt;package.json" style="rounded=0;whiteSpace=wrap;html=1;" vertex="1" parent="XDD5NqhHqpp_Tf_U7cEY-12">
          <mxGeometry x="40" y="50" width="120" height="60" as="geometry" />
        </mxCell>
        <mxCell id="XDD5NqhHqpp_Tf_U7cEY-14" value="&lt;b&gt;Module Navigator&lt;/b&gt;&lt;br&gt;node_modules Flder" style="rounded=0;whiteSpace=wrap;html=1;" vertex="1" parent="XDD5NqhHqpp_Tf_U7cEY-12">
          <mxGeometry x="40" y="140" width="120" height="60" as="geometry" />
        </mxCell>
        <mxCell id="XDD5NqhHqpp_Tf_U7cEY-15" value="&lt;blockquote style=&quot;margin: 0 0 0 40px; border: none; padding: 0px;&quot;&gt;Baselines&lt;/blockquote&gt;" style="swimlane;whiteSpace=wrap;html=1;" vertex="1" parent="1">
          <mxGeometry x="374" y="370" width="200" height="140" as="geometry" />
        </mxCell>
        <mxCell id="XDD5NqhHqpp_Tf_U7cEY-16" value="&lt;b&gt;File&lt;/b&gt;&lt;br&gt;README.md" style="rounded=0;whiteSpace=wrap;html=1;" vertex="1" parent="XDD5NqhHqpp_Tf_U7cEY-15">
          <mxGeometry x="40" y="50" width="120" height="60" as="geometry" />
        </mxCell>
      </root>
    </mxGraphModel>
  </diagram>
</mxfile>
